<svg xmlns="http://www.w3.org/2000/svg" viewBox="0 0 293.6 316.6"><defs><style>.cls-1{fill:#fff;}</style></defs><g id="Layer_2" data-name="Layer 2"><g id="Layer_1-2" data-name="Layer 1"><path class="cls-1" d="M0,316.6V0H293.6V316.6Zm138.24-42.37h.31c0,.1,0,.2.06.29a119.47,119.47,0,0,0,3.79,18.25c2.27,7.09,5.76,13.4,11.61,18.17,5.58,4.57,11.92,6.57,19.1,5.05,7.69-1.62,13.51-6.1,18.07-12.32,4.77-6.52,6.68-14.05,7.42-21.94a94.78,94.78,0,0,0-.17-17.26c-.12-1.28-.21-2.56-.32-4l5,.76c0,.3,0,.5,0,.69a41.58,41.58,0,0,0,6.2,21.31c2.33,3.82,5.11,7.24,9.08,9.5,5.51,3.13,11.22,2,15.11-3a31.61,31.61,0,0,0,5-11l.65-2.4c1.7,2.91,3.26,5.73,5,8.45A32.73,32.73,0,0,0,254,295.22a20.26,20.26,0,0,0,11.39,3.47c5-.08,8.85-2.44,12.06-6a51.37,51.37,0,0,0,9.76-17.16c3.67-10.1,5.24-20.62,6-31.28A144.46,144.46,0,0,0,289,198.58c-2.39-9.37-5.39-18.53-10.05-27.05a40.22,40.22,0,0,0-10-12.33c-6.75-5.44-14.64-8-23.11-9.09-9.05-1.15-18.09-.62-27.12.32-1.74.19-3.47.36-5.23.54a2.63,2.63,0,0,1,0-.34l.51-1.09a111.53,111.53,0,0,0,9.95-59.71A103.51,103.51,0,0,0,213,52.92,87.23,87.23,0,0,0,193.57,27.4c-9.17-8.2-19.79-13.91-31.32-18A162.2,162.2,0,0,0,119.05.55,119,119,0,0,0,85.26,2.81,107.07,107.07,0,0,0,26,38.06C10.38,56,1.93,77,.36,100.69a92.22,92.22,0,0,0,2.37,27.85A101.81,101.81,0,0,0,25.21,171.9,102.58,102.58,0,0,0,71.69,203c1.42.46,2.86.86,4.23,1.27,0,2,0,4,0,6-.26,13.52-.33,27,1.06,40.52A145.88,145.88,0,0,0,82,277.4c2.1,7.07,4.71,13.94,9,20,4.73,6.69,10.76,11.51,19.08,12.88A20.43,20.43,0,0,0,124.3,308c4.24-2.53,6.77-6.4,8.48-10.9s2.44-9.24,3.43-13.93C136.83,280.17,137.56,277.2,138.24,274.23Z"/><path d="M138.24,274.23c-.68,3-1.41,5.94-2,8.92-1,4.69-1.72,9.43-3.43,13.93s-4.24,8.37-8.48,10.9a20.43,20.43,0,0,1-14.19,2.33c-8.32-1.37-14.35-6.19-19.08-12.88-4.29-6.09-6.9-13-9-20A145.88,145.88,0,0,1,77,250.77c-1.39-13.48-1.32-27-1.06-40.52,0-2,0-3.93,0-6-1.37-.41-2.81-.81-4.23-1.27A102.58,102.58,0,0,1,25.21,171.9,101.81,101.81,0,0,1,2.73,128.54,92.22,92.22,0,0,1,.36,100.69C1.93,77,10.38,56,26,38.06A107.07,107.07,0,0,1,85.26,2.81,119,119,0,0,1,119.05.55a162.2,162.2,0,0,1,43.2,8.84c11.53,4.1,22.15,9.81,31.32,18A87.23,87.23,0,0,1,213,52.92a103.51,103.51,0,0,1,10.92,36.91A111.53,111.53,0,0,1,214,149.54l-.51,1.09a2.63,2.63,0,0,0,0,.34c1.76-.18,3.49-.35,5.23-.54,9-.94,18.07-1.47,27.12-.32,8.47,1.08,16.36,3.65,23.11,9.09a40.22,40.22,0,0,1,10,12.33c4.66,8.52,7.66,17.68,10.05,27.05a144.46,144.46,0,0,1,4.18,45.65c-.71,10.66-2.28,21.18-6,31.28a51.37,51.37,0,0,1-9.76,17.16c-3.21,3.58-7.08,5.94-12.06,6A20.26,20.26,0,0,1,254,295.22a32.73,32.73,0,0,1-9.76-10.42c-1.73-2.72-3.29-5.54-5-8.45l-.65,2.4a31.61,31.61,0,0,1-5,11c-3.89,5-9.6,6.16-15.11,3-4-2.26-6.75-5.68-9.08-9.5A41.58,41.58,0,0,1,203.2,262c0-.19,0-.39,0-.69l-5-.76c.11,1.39.2,2.67.32,4a94.78,94.78,0,0,1,.17,17.26c-.74,7.89-2.65,15.42-7.42,21.94-4.56,6.22-10.38,10.7-18.07,12.32-7.18,1.52-13.52-.48-19.1-5.05-5.85-4.77-9.34-11.08-11.61-18.17a119.47,119.47,0,0,1-3.79-18.25c0-.09,0-.19-.06-.29Zm77.75-173c-.22-5.07-.3-9.67-.63-14.25a66.84,66.84,0,0,0-3.49-17.87,97.59,97.59,0,0,0-19.71-33.18,76.85,76.85,0,0,0-29-20.49c-11.94-4.68-24.45-6.88-37.16-8A138.61,138.61,0,0,0,97,7.77a97.25,97.25,0,0,0-26.1,6.75A108.62,108.62,0,0,0,36.84,37.16,101.63,101.63,0,0,0,16,65.63C7.29,83.54,5.47,102.36,8.73,121.81a105.48,105.48,0,0,0,8.66,27.51A74.47,74.47,0,0,0,29.9,168.59c5.91,6.38,12.94,11.28,20.46,15.51a116.65,116.65,0,0,0,47.85,14.62A107.22,107.22,0,0,0,129.73,197a127.16,127.16,0,0,0,54.18-26.31,93.48,93.48,0,0,0,22.76-26.42,59.77,59.77,0,0,0,7.93-23.36C215.29,114.18,215.56,107.46,216,101.21ZM82,205.63c-.08,2-.15,3.84-.23,5.7-.65,14.9-.47,29.76,1.86,44.54a120.56,120.56,0,0,0,8.82,30.79,35.41,35.41,0,0,0,7.93,11.65c4.15,3.88,9,5.79,14.69,5.05,6.68-.88,10.93-4.75,12.53-11.22,2.73-11,5.37-22.12,6.21-33.51a10,10,0,0,1,3.88-7.35c1-.76,1.27-.64,1.53.5s.55,2.26.81,3.4c2,8.78,3.9,17.6,6,26.35a108.15,108.15,0,0,0,7.58,21.19c2.72,5.7,7.19,8.43,13.41,7.83a33.53,33.53,0,0,0,20.6-9.57,10.67,10.67,0,0,0,3.18-6.83c.17-1.72.44-3.43.72-5.14a65.64,65.64,0,0,0,.59-20.08,28.22,28.22,0,0,1,.08-9.26c.53-2.77,1.85-4.32,4.12-4.81L217,250.35c8-1.76,16.13-3.24,24.42-3.1,2.29,0,3.38.87,3.56,3.14a37.07,37.07,0,0,1-.08,5.37,53.55,53.55,0,0,0-.57,5.75,44.31,44.31,0,0,0,6,20.78,20.79,20.79,0,0,0,8.1,8.35c4.59,2.41,8.75,2,12.53-1.49a57.49,57.49,0,0,0,9.53-12.41c3.75-6.12,5-13.08,5.62-20.11.48-5.89.58-11.83.64-17.76a152.22,152.22,0,0,0-2.37-28.82,163.87,163.87,0,0,0-6.15-22.4c-1.9-5.65-3.88-11.26-7.05-16.36-3.07-4.94-7-9-12.41-11.35a54.65,54.65,0,0,0-17.63-4,98.12,98.12,0,0,0-19.76.39,69.15,69.15,0,0,0-15,3.21,6.82,6.82,0,0,0-2.52,1.67c-2.68,2.73-5.19,5.63-7.92,8.32a127.55,127.55,0,0,1-37.29,25.58c-17.44,7.85-35.81,11.48-54.86,11.91C96.56,207.16,89.29,207.25,82,205.63Zm155.55,47.5c-.6.08-1.06.11-1.51.2-3.68.77-7.36,1.53-11,2.33-5.49,1.19-11,2.25-15.89,5.32-.51.33-.83.57-.71,1.21.2,1.1.28,2.24.58,3.32,1.08,3.84,2.33,7.63,3.34,11.49a19.84,19.84,0,0,0,5.9,9.54,8.58,8.58,0,0,0,8.2,2.27,5,5,0,0,0,3.3-2.38,24.56,24.56,0,0,0,3.66-9.2c.56-4,2.14-7.76,2.2-11.84a3.31,3.31,0,0,1,1.4-2.54,1.48,1.48,0,0,0,.53-1C237.53,259,237.52,256.15,237.52,253.13Z"/><path class="cls-1" d="M216,101.21c-.43,6.25-.7,13-1.39,19.66a59.77,59.77,0,0,1-7.93,23.36,93.48,93.48,0,0,1-22.76,26.42A127.16,127.16,0,0,1,129.73,197a107.22,107.22,0,0,1-31.52,1.76A116.65,116.65,0,0,1,50.36,184.1c-7.52-4.23-14.55-9.13-20.46-15.51a74.47,74.47,0,0,1-12.51-19.27,105.48,105.48,0,0,1-8.66-27.51C5.47,102.36,7.29,83.54,16,65.63A101.63,101.63,0,0,1,36.84,37.16,108.62,108.62,0,0,1,70.92,14.52,97.25,97.25,0,0,1,97,7.77,138.61,138.61,0,0,1,126,7.41c12.71,1.13,25.22,3.33,37.16,8a76.85,76.85,0,0,1,29,20.49,97.59,97.59,0,0,1,19.71,33.18A66.84,66.84,0,0,1,215.36,87C215.69,91.54,215.77,96.14,216,101.21ZM83.28,105.56l-.16,0c-.1-1.59-.13-3.19-.34-4.77-.89-6.72-3.71-12.46-9.22-16.54A29.25,29.25,0,0,0,49,79.05C41.4,80.71,35.9,85.17,33.13,92.62a25.2,25.2,0,0,0-.92,13.2c1.29,7.64,4.14,14.58,9.69,20.18a19.87,19.87,0,0,0,14.7,6.39,29.59,29.59,0,0,0,16.71-5.23,19.8,19.8,0,0,0,8.8-12.61C82.71,111.59,82.9,108.56,83.28,105.56Zm36.61.4c.26,8.31,4.18,15.78,12.58,20.6a26.94,26.94,0,0,0,17.24,3.36c8.53-1.09,15-5.36,18.92-13,4.7-9.31,4.08-18.66-1.19-27.55a24.4,24.4,0,0,0-26.6-11.43C128.75,80.79,120,92,119.89,106Zm-16.7,47.13H96.8c-2.2,0-4.4,0-6.6,0a2,2,0,0,0-2,1.93,1.91,1.91,0,0,0,1.93,1.89c.29,0,.6,0,.9,0h24.08a8,8,0,0,0,1.3-.06,1.61,1.61,0,0,0,1.45-1.53,1.84,1.84,0,0,0-2-2.28Z"/><path class="cls-1" d="M82,205.63c7.32,1.62,14.59,1.53,21.85,1.36,19.05-.43,37.42-4.06,54.86-11.91A127.55,127.55,0,0,0,196,169.5c2.73-2.69,5.24-5.59,7.92-8.32a6.82,6.82,0,0,1,2.52-1.67,69.15,69.15,0,0,1,15-3.21,98.12,98.12,0,0,1,19.76-.39,54.65,54.65,0,0,1,17.63,4c5.42,2.39,9.34,6.41,12.41,11.35,3.17,5.1,5.15,10.71,7.05,16.36a163.87,163.87,0,0,1,6.15,22.4,152.22,152.22,0,0,1,2.37,28.82c-.06,5.93-.16,11.87-.64,17.76-.58,7-1.87,14-5.62,20.11A57.49,57.49,0,0,1,271,289.15c-3.78,3.49-7.94,3.9-12.53,1.49a20.79,20.79,0,0,1-8.1-8.35,44.31,44.31,0,0,1-6-20.78,53.55,53.55,0,0,1,.57-5.75,37.07,37.07,0,0,0,.08-5.37c-.18-2.27-1.27-3.1-3.56-3.14-8.29-.14-16.37,1.34-24.42,3.1l-20.68,4.51c-2.27.49-3.59,2-4.12,4.81a28.22,28.22,0,0,0-.08,9.26,65.64,65.64,0,0,1-.59,20.08c-.28,1.71-.55,3.42-.72,5.14a10.67,10.67,0,0,1-3.18,6.83,33.53,33.53,0,0,1-20.6,9.57c-6.22.6-10.69-2.13-13.41-7.83A108.15,108.15,0,0,1,146,281.53c-2.13-8.75-4-17.57-6-26.35-.26-1.14-.54-2.27-.81-3.4s-.58-1.26-1.53-.5a10,10,0,0,0-3.88,7.35c-.84,11.39-3.48,22.47-6.21,33.51-1.6,6.47-5.85,10.34-12.53,11.22-5.69.74-10.54-1.17-14.69-5.05a35.41,35.41,0,0,1-7.93-11.65,120.56,120.56,0,0,1-8.82-30.79c-2.33-14.78-2.51-29.64-1.86-44.54C81.82,209.47,81.89,207.61,82,205.63Z"/><path class="cls-1" d="M237.52,253.13c0,3,0,5.88,0,8.73a1.48,1.48,0,0,1-.53,1,3.31,3.31,0,0,0-1.4,2.54c-.06,4.08-1.64,7.87-2.2,11.84a24.56,24.56,0,0,1-3.66,9.2,5,5,0,0,1-3.3,2.38,8.58,8.58,0,0,1-8.2-2.27,19.84,19.84,0,0,1-5.9-9.54c-1-3.86-2.26-7.65-3.34-11.49-.3-1.08-.38-2.22-.58-3.32-.12-.64.2-.88.71-1.21,4.87-3.07,10.4-4.13,15.89-5.32,3.67-.8,7.35-1.56,11-2.33C236.46,253.24,236.92,253.21,237.52,253.13Z"/><path d="M83.28,105.56c-.38,3-.57,6-1.17,9a19.8,19.8,0,0,1-8.8,12.61,29.59,29.59,0,0,1-16.71,5.23A19.87,19.87,0,0,1,41.9,126c-5.55-5.6-8.4-12.54-9.69-20.18a25.2,25.2,0,0,1,.92-13.2C35.9,85.17,41.4,80.71,49,79.05a29.25,29.25,0,0,1,24.52,5.16c5.51,4.08,8.33,9.82,9.22,16.54.21,1.58.24,3.18.34,4.77Zm-36-3.37v0c.64,0,1.27,0,1.9,0a2.09,2.09,0,0,0,1.17-.41,13.75,13.75,0,0,0,4.67-10,3.38,3.38,0,0,0-1.54-3,6.81,6.81,0,0,0-7.36.06c-4.47,3-4.51,7.35-3.68,12a1.43,1.43,0,0,0,1.46,1.14C45,102,46.11,102.11,47.24,102.19Z"/><path d="M119.89,106c.1-14,8.86-25.17,21-28.06a24.4,24.4,0,0,1,26.6,11.43c5.27,8.89,5.89,18.24,1.19,27.55-3.87,7.68-10.39,12-18.92,13a26.94,26.94,0,0,1-17.24-3.36C124.07,121.74,120.15,114.27,119.89,106ZM140.1,88.42a4.39,4.39,0,0,0-3.61,1.38A32.07,32.07,0,0,1,134,92.37c-2.31,2-2.78,4.62-2.56,7.43a6.07,6.07,0,0,0,3.67,5.52c2.26.92,4.32,0,6-1.65A29.84,29.84,0,0,0,144,100.5a10.34,10.34,0,0,0,2.43-8.45,3.36,3.36,0,0,0-3.15-3.18C142.22,88.7,141.16,88.57,140.1,88.42Z"/><path d="M103.19,153.09h12.6a1.84,1.84,0,0,1,2,2.28,1.61,1.61,0,0,1-1.45,1.53,8,8,0,0,1-1.3.06H91c-.3,0-.61,0-.9,0a1.91,1.91,0,0,1-1.93-1.89,2,2,0,0,1,2-1.93c2.2,0,4.4,0,6.6,0h6.39Z"/><path class="cls-1" d="M47.24,102.19c-1.13-.08-2.25-.18-3.38-.25a1.43,1.43,0,0,1-1.46-1.14c-.83-4.65-.79-9,3.68-12a6.81,6.81,0,0,1,7.36-.06,3.38,3.38,0,0,1,1.54,3,13.75,13.75,0,0,1-4.67,10,2.09,2.09,0,0,1-1.17.41c-.63.06-1.26,0-1.9,0Z"/><path class="cls-1" d="M140.1,88.42c1.06.15,2.12.28,3.16.45a3.36,3.36,0,0,1,3.15,3.18A10.34,10.34,0,0,1,144,100.5a29.84,29.84,0,0,1-2.89,3.17c-1.68,1.61-3.74,2.57-6,1.65a6.07,6.07,0,0,1-3.67-5.52c-.22-2.81.25-5.44,2.56-7.43a32.07,32.07,0,0,0,2.51-2.57A4.39,4.39,0,0,1,140.1,88.42Z"/></g></g></svg>