<?xml version="1.0" encoding="UTF-8" standalone="no"?>
<!-- Created with Inkscape (http://www.inkscape.org/) -->

<svg
   width="70.690742mm"
   height="76.335464mm"
   viewBox="0 0 70.690742 76.335464"
   version="1.1"
   id="svg5"
   xml:space="preserve"
   xmlns="http://www.w3.org/2000/svg"
   xmlns:svg="http://www.w3.org/2000/svg"><defs
     id="defs2" /><g
     id="layer1"
     transform="translate(-74.687614,-109.95395)"><path
       style="fill:#000000;stroke-width:0.264583"
       d="m 113.02837,185.75612 c -2.57247,-1.22664 -3.84081,-3.45199 -4.85414,-8.51679 l -0.21174,-1.05833 -0.27482,1.05833 c -0.15115,0.58208 -0.46928,1.88875 -0.70697,2.90371 -0.7779,3.32178 -2.28584,4.71832 -5.0677,4.69332 -3.338702,-0.03 -5.987294,-2.81026 -7.498187,-7.87094 -0.976275,-3.26999 -1.378041,-6.45478 -1.538747,-12.19761 l -0.156494,-5.59234 -1.004694,-0.30102 c -1.93767,-0.58054 -5.682854,-2.66193 -7.739995,-4.30151 -3.934726,-3.13605 -7.37101,-8.40702 -8.681657,-13.31694 -0.803831,-3.0113 -0.808007,-8.08953 -0.0093,-11.31738 1.872895,-7.56907 6.819976,-13.7534 13.810476,-17.26444 7.121464,-3.57682 16.561128,-3.62882 25.587478,-0.14095 8.32389,3.21644 13.49192,10.88398 14.00957,20.78527 0.21366,4.08692 -0.60053,8.33519 -2.42718,12.66438 -0.17871,0.42355 -0.12195,0.46617 0.4002,0.30044 0.33464,-0.10621 2.22788,-0.1952 4.20721,-0.19776 2.87634,-0.004 3.92272,0.10053 5.21251,0.5193 4.21819,1.36953 6.43096,4.36526 8.17096,11.06218 2.10133,8.08759 1.17854,17.67112 -2.13527,22.17556 -2.35441,3.20033 -5.89672,2.76561 -8.436,-1.03529 -0.57614,-0.86239 -1.12776,-1.66797 -1.22581,-1.79018 -0.0981,-0.12221 -0.37317,0.36458 -0.61137,1.08175 -0.45548,1.37132 -1.46654,2.52968 -2.47364,2.83404 -2.16434,0.65408 -5.10437,-2.72665 -5.5604,-6.39389 -0.16735,-1.34575 -0.26728,-1.54388 -0.81796,-1.62181 -0.6174,-0.0874 -0.62538,-0.0602 -0.50443,1.71979 0.28189,4.14858 -0.65808,7.56766 -2.61983,9.52941 -2.09335,2.09335 -4.57608,2.67019 -6.84206,1.5897 z m 4.11186,-1.41881 c 1.37266,-0.55673 2.79673,-1.61093 3.11259,-2.30416 0.48676,-1.06832 0.85447,-4.4393 0.7881,-7.22486 -0.0366,-1.53528 0.0497,-2.81032 0.20035,-2.96208 0.44853,-0.4517 7.54086,-1.92742 9.98802,-2.07823 1.85833,-0.11453 2.32172,-0.0702 2.34864,0.22475 0.0184,0.20209 0.0532,1.43899 0.0772,2.74868 0.0531,2.89974 0.79018,5.00192 2.27399,6.48573 1.92557,1.92556 3.43354,1.61029 5.43487,-1.13629 1.96243,-2.6932 2.36792,-4.4294 2.36164,-10.11194 -0.006,-5.39061 -0.28912,-7.4035 -1.63769,-11.64166 -2.21063,-6.94739 -4.0115,-8.48789 -10.27699,-8.79118 -2.17361,-0.10522 -3.49425,-0.026 -5.14545,0.30855 l -2.22133,0.4501 -2.43646,2.32927 c -2.73474,2.61443 -5.94489,4.86066 -8.89338,6.22295 -4.47664,2.06833 -10.47361,3.20555 -15.734427,2.98374 l -2.959324,-0.12478 -0.185514,1.7323 c -0.23457,2.19038 0.06298,7.67533 0.576252,10.62249 1.253284,7.19622 3.724285,11.12176 7.000783,11.12176 1.29429,0 2.59869,-0.75678 3.141,-1.82234 0.52411,-1.0298 1.86842,-7.24281 1.86842,-8.63528 0,-0.72569 0.9483,-2.4406 1.2067,-2.18221 0.0484,0.0484 0.56013,2.12136 1.13714,4.60653 1.07898,4.64715 2.33666,8.1668 3.1962,8.94468 1.05606,0.95571 2.78919,1.04039 4.77871,0.23348 z m 12.29276,-4.74936 c 0.64112,-0.24603 1.35069,-1.85163 1.73951,-3.93612 0.19,-1.01865 0.44422,-1.96519 0.56493,-2.10344 0.30601,-0.35047 0.27597,-2.52677 -0.0349,-2.52677 -0.13989,0 -1.30075,0.23908 -2.57969,0.53128 -2.5422,0.58082 -4.30972,1.25894 -4.30972,1.65345 0,0.13876 0.31324,1.27927 0.6961,2.53447 0.9626,3.15586 2.30225,4.46935 3.92374,3.84713 z M 103.918,157.77845 c 9.88399,-1.22813 19.97603,-8.90776 22.09243,-16.81143 0.64263,-2.3999 0.81243,-8.96093 0.30664,-11.84868 -1.2167,-6.94667 -7.0765,-13.89155 -13.40899,-15.89198 -4.67023,-1.47532 -10.58512,-2.06598 -14.950142,-1.49291 -9.967309,1.30857 -18.730203,8.9044 -21.068834,18.26282 -0.480538,1.92296 -0.539364,2.7519 -0.422468,5.95313 0.143529,3.93056 0.459381,5.49054 1.778875,8.78582 2.007709,5.01402 4.892421,7.94659 10.359004,10.53087 4.890068,2.31173 10.078085,3.16289 15.313485,2.51236 z m -7.944437,-10.43704 c 0,-0.35623 0.476273,-0.4022 3.505729,-0.33841 4.607518,0.097 4.561138,0.57755 -0.06534,0.67682 -2.970296,0.0637 -3.440391,0.0175 -3.440391,-0.33841 z m -9.359698,-5.7987 c -1.435832,-0.53135 -2.645867,-1.79927 -3.470265,-3.63627 -1.428105,-3.18224 -1.107085,-5.89676 0.913204,-7.72197 2.707672,-2.44622 7.847428,-1.47639 9.722972,1.83466 1.190943,2.10246 1.016811,5.65597 -0.365998,7.46893 -1.33098,1.745 -4.802304,2.79389 -6.799913,2.05465 z m 0.609244,-7.73073 c 0.957906,-1.21778 0.604155,-2.74244 -0.6363,-2.74244 -1.280014,0 -2.284106,1.56799 -1.859925,2.90447 0.26372,0.8309 1.793279,0.73162 2.496225,-0.16203 z m 21.111121,7.29735 c -4.08892,-1.00311 -5.90709,-5.09009 -3.97905,-8.94432 3.02956,-6.0562 11.55492,-3.93663 11.55698,2.87328 5.3e-4,1.90969 -0.55771,3.29611 -1.85419,4.60457 -1.32524,1.3375 -3.73392,1.95463 -5.72374,1.46647 z m 0.71277,-6.6206 c 1.35188,-1.60663 1.19335,-2.95388 -0.36568,-3.10759 -1.6844,-0.16607 -2.94301,1.86303 -2.11512,3.40996 0.43549,0.8137 1.6681,0.66346 2.4808,-0.30237 z"
       id="path179" /></g></svg>
